<svg width="458" height="181" viewBox="0 0 458 181" fill="none" xmlns="http://www.w3.org/2000/svg">
<g clip-path="url(#clip0_4_32)">
<rect width="458" height="181" fill="white"/>
<path d="M10.4 171V8.99999H42.8V65.6C47.0667 61.3333 51.5333 58.2667 56.2 56.4C60.8667 54.4 65.8667 53.4 71.2 53.4C75.8667 53.4 79.7333 54.6 82.8 57C86 59.2667 88.4 62.4667 90 66.6C91.6 70.6 92.4 75.2 92.4 80.4V171H60V85C60 82.2 59.5333 80.0667 58.6 78.6C57.6667 77.1333 55.9333 76.4 53.4 76.4C52.0667 76.4 50.4667 76.8 48.6 77.6C46.7333 78.2667 44.8 79.2667 42.8 80.6V171H10.4ZM122.358 173C117.691 173 113.691 171.867 110.358 169.6C107.158 167.2 104.758 163.933 103.158 159.8C101.558 155.667 100.758 151.067 100.758 146V55.4H133.358V142.2C133.358 145 133.824 147.2 134.758 148.8C135.824 150.267 137.624 151 140.158 151C141.624 151 143.158 150.667 144.758 150C146.358 149.2 148.024 148.333 149.758 147.4V55.4H182.158V171H149.758V160.4C145.624 164.267 141.224 167.333 136.558 169.6C132.024 171.867 127.291 173 122.358 173ZM192.939 171V8.99999H225.339V65.6C229.606 61.3333 234.072 58.2667 238.739 56.4C243.406 54.4 248.406 53.4 253.739 53.4C258.406 53.4 262.272 54.6 265.339 57C268.539 59.2667 270.939 62.4667 272.539 66.6C274.139 70.6 274.939 75.2 274.939 80.4V171H242.539V85C242.539 82.2 242.072 80.0667 241.139 78.6C240.206 77.1333 238.472 76.4 235.939 76.4C234.606 76.4 233.006 76.8 231.139 77.6C229.272 78.2667 227.339 79.2667 225.339 80.6V171H192.939Z" fill="#131B23"/>
<path d="M288 76.7981C288 70.9314 289.4 65.9981 292.2 61.9981C295 57.9981 298.533 54.9981 302.8 52.9981C307.2 50.9981 311.667 49.9981 316.2 49.9981C323.4 49.9981 329.467 51.3981 334.4 54.1981C339.333 57.1314 343.467 60.9314 346.8 65.5981C350.133 70.2648 352.933 75.3981 355.2 80.9981C357.6 86.5981 359.733 92.1314 361.6 97.5981H373.2C375.2 97.5981 376.933 97.3981 378.4 96.9981C380 96.5981 381.2 95.9314 382 94.9981C382.933 94.0648 383.4 92.6648 383.4 90.7981C383.4 88.9314 383 87.4648 382.2 86.3981C381.4 85.4648 380.267 84.7981 378.8 84.3981C377.467 83.9981 375.933 83.7314 374.2 83.5981L365.8 82.7981L367 52.3981C380.867 53.0648 391.067 56.7314 397.6 63.3981C404.267 70.1981 407.6 80.3314 407.6 93.7981C407.6 105.531 404.333 114.265 397.8 119.998C391.4 125.865 383.067 128.798 372.8 128.798L318.8 128.798C314 128.798 309.8 128.865 306.2 128.998C302.6 129.265 299.467 129.531 296.8 129.798C294.133 130.198 291.867 130.531 290 130.798V101.598C293.067 101.198 296.4 100.731 300 100.198C303.6 99.6648 305.733 99.2648 306.4 98.9981C301.6 97.6648 297.333 95.1314 293.6 91.3981C289.867 87.7981 288 82.9314 288 76.7981ZM310 88.3981C310 89.7314 310.267 90.9314 310.8 91.9981C311.333 93.1981 312.067 94.2648 313 95.1981C313.933 96.1314 314.867 96.9314 315.8 97.5981H347.4C345.8 94.9314 344.133 92.4648 342.4 90.1981C340.8 87.9314 339 85.9981 337 84.3981C335 82.7981 332.8 81.5314 330.4 80.5981C328.133 79.7981 325.533 79.3981 322.6 79.3981C318.733 79.3981 315.667 80.1981 313.4 81.7981C311.133 83.3981 310 85.5981 310 88.3981ZM290 138.39L405.6 138.39V170.99L290 170.99V138.39ZM425.2 138.19H447.8V170.99H425.2V138.19Z" fill="#5392FF"/>
</g>
<defs>
<clipPath id="clip0_4_32">
<rect width="458" height="181" fill="white"/>
</clipPath>
</defs>
</svg>
